<svg xmlns="http://www.w3.org/2000/svg" version="1.1" xmlns:xlink="http://www.w3.org/1999/xlink" width="200" height="200"><svg xmlns="http://www.w3.org/2000/svg" version="1.1" xmlns:xlink="http://www.w3.org/1999/xlink" viewBox="0 0 200 200"><rect width="200" height="200" fill="url('#gradient')"></rect><defs><linearGradient id="SvgjsLinearGradient1001" gradientTransform="rotate(45 0.5 0.5)"><stop offset="0%" stop-color="#060604"></stop><stop offset="100%" stop-color="#748a4e"></stop></linearGradient></defs><g><g fill="#ffffff" transform="matrix(6.9625207296849085,0,0,6.9625207296849085,10.530047402967071,149.4730820549859)" stroke="#776642" stroke-width="0"><path d="M8.94 0L5.91-5.29L4.50-3.75L4.50 0L1.07 0L1.07-14.22L4.50-14.22L4.50-7.95L5.69-9.76L8.76-14.22L13.00-14.22L8.19-7.93L13.00 0L8.94 0ZM21.20-3.78L21.20-3.78Q21.20-4.53 20.67-4.95Q20.14-5.37 18.80-5.82Q17.46-6.27 16.61-6.69L16.61-6.69Q13.85-8.05 13.85-10.42L13.85-10.42Q13.85-11.60 14.54-12.50Q15.22-13.41 16.48-13.91Q17.74-14.41 19.32-14.41L19.32-14.41Q20.85-14.41 22.07-13.87Q23.28-13.32 23.96-12.31Q24.63-11.30 24.63-10L24.63-10L21.21-10Q21.21-10.87 20.68-11.35Q20.15-11.83 19.24-11.83L19.24-11.83Q18.32-11.83 17.79-11.42Q17.26-11.02 17.26-10.39L17.26-10.39Q17.26-9.84 17.84-9.40Q18.43-8.96 19.90-8.48Q21.38-8.01 22.32-7.46L22.32-7.46Q24.63-6.13 24.63-3.80L24.63-3.80Q24.63-1.93 23.22-0.87Q21.82 0.20 19.37 0.20L19.37 0.20Q17.64 0.20 16.24-0.42Q14.83-1.04 14.13-2.12Q13.42-3.20 13.42-4.61L13.42-4.61L16.86-4.61Q16.86-3.47 17.45-2.92Q18.04-2.38 19.37-2.38L19.37-2.38Q20.21-2.38 20.71-2.75Q21.20-3.12 21.20-3.78Z"></path></g></g></svg><style>@media (prefers-color-scheme: light) { :root { filter: none; } }
@media (prefers-color-scheme: dark) { :root { filter: none; } }
</style></svg>